<?xml version="1.0" encoding="UTF-8"?>
<svg width="21px" height="21px" viewBox="0 0 21 21" version="1.1" xmlns="http://www.w3.org/2000/svg" xmlns:xlink="http://www.w3.org/1999/xlink">
    <title>ic-首页@2x</title>
    <g id="页面-1" stroke="none" stroke-width="1" fill="none" fill-rule="evenodd">
        <g id="首页-境内项目跟投" transform="translate(-27.000000, -12.000000)">
            <g id="ic-首页" transform="translate(27.873315, 12.450000)">
                <rect id="矩形" x="0" y="0" width="20" height="20"></rect>
                <path d="M16.7766847,9.360124 L10.7766847,3.300124 C10.5847739,3.10426793 10.3208575,2.99580913 10.0466847,3 C9.77380672,3.00242991 9.51233033,3.10988596 9.31668472,3.300124 L3.31668472,9.360124 C3.0187713,9.63896626 2.92016147,10.0708472 3.06752709,10.4513585 C3.2148927,10.8318697 3.57867035,11.0846757 3.98668472,11.090124 L4.39668472,11.090124 C4.44797485,11.0952782 4.48694304,11.1385762 4.48668472,11.190124 L4.48668472,15.250124 C4.49218481,16.1906233 5.2561693,16.9501401 6.19668472,16.950124 L8.12668472,16.950124 C8.56851252,16.950124 8.92668472,16.5919518 8.92668472,16.150124 L8.92668472,12.380124 C8.92668472,12.19787 9.07443075,12.050124 9.25668472,12.050124 L10.7666847,12.050124 C10.9450219,12.0555306 11.0867667,12.2017049 11.0866847,12.380124 L11.0866847,16.170124 C11.0866847,16.6119518 11.4448569,16.970124 11.8866847,16.970124 L13.8366847,16.970124 C14.7755688,16.970124 15.5366847,16.2090081 15.5366847,15.270124 L15.5366847,11.210124 C15.5366847,11.1836023 15.5472204,11.158167 15.565974,11.1394133 C15.5847277,11.1206597 15.6101631,11.110124 15.6366847,11.110124 L16.0366847,11.110124 C16.4653125,11.1408381 16.8656385,10.8942752 17.031079,10.4976713 C17.1965194,10.1010675 17.0900789,9.64311053 16.7666847,9.360124 L16.7766847,9.360124 Z" id="路径" fill="#5AAAFB" fill-rule="nonzero"></path>
            </g>
        </g>
    </g>
</svg>